<svg width="1145" height="297" viewBox="0 0 1145 297" fill="none" xmlns="http://www.w3.org/2000/svg">
<rect x="176.782" y="25.5" width="138.163" height="40.7593" fill="black" stroke="black"/>
<rect x="173.214" y="255.741" width="138.163" height="40.7593" fill="black" stroke="black"/>
<path d="M869.096 295.604L741.275 211.844L741 211.662L740.724 211.845L614.607 295.595L741.004 26.1699L869.096 295.604Z" fill="black" stroke="black"/>
<path d="M67.0116 286.056L143.698 159.978L143.855 159.72L143.699 159.46L67.9584 34.1575L312.62 160.732L67.0116 286.056Z" fill="black" stroke="black"/>
<rect x="0.5" y="25.5" width="53.3945" height="271" fill="black" stroke="black"/>
<path d="M395.231 25.5V243.326H528.149V296.5H344.491V25.5H395.231Z" fill="black" stroke="black"/>
<path d="M673.557 25.5V83.1885H598.623V296.5H551.451V83.1885H473.841V25.5H673.557Z" fill="black" stroke="black"/>
<path fill-rule="evenodd" clip-rule="evenodd" d="M1021.5 95.7683C1032.49 95.7683 1041.4 103.862 1041.4 113.85C1041.4 123.836 1032.49 131.932 1021.5 131.932C1010.5 131.932 1001.59 123.836 1001.59 113.85C1001.59 103.862 1010.5 95.7683 1021.5 95.7683ZM971.844 113.85V117.091L985.579 118.948C985.965 121.313 986.658 123.574 987.566 125.747L976.705 133.596L980.274 139.204L993.198 134.594C994.819 136.416 996.651 138.081 998.677 139.553L993.584 151.292L999.757 154.533L1008.4 144.669C1010.79 145.511 1013.28 146.124 1015.88 146.491L1017.95 158.949H1025.07L1027.13 146.491C1029.71 146.124 1032.22 145.511 1034.59 144.669L1043.26 154.533L1049.41 151.292L1044.34 139.553C1046.34 138.08 1048.18 136.416 1049.79 134.594L1062.72 139.204L1066.29 133.596L1055.43 125.747C1056.35 123.574 1057.03 121.314 1057.43 118.948L1071.17 117.074V113.85V110.609L1057.43 108.734C1057.03 106.386 1056.35 104.108 1055.43 101.954L1066.29 94.0867L1062.72 88.4978L1049.79 93.1055C1048.17 91.2835 1046.34 89.6182 1044.34 88.1479L1049.41 76.409L1043.26 73.1675L1034.59 83.0305C1032.22 82.1897 1029.71 81.5778 1027.13 81.2091L1025.07 68.7347H1017.95L1015.88 81.2091C1013.28 81.5778 1010.79 82.1897 1008.4 83.0305L999.757 73.1675L993.584 76.409L998.677 88.1479C996.651 89.6188 994.819 91.2835 993.198 93.1055L980.274 88.4978L976.705 94.0867L987.566 101.954C986.659 104.109 985.965 106.386 985.579 108.734L971.844 110.609V113.85ZM1124.97 57.8183C1126.09 57.2233 1127.54 57.5732 1128.19 58.5895C1128.85 59.6222 1128.46 60.9369 1127.33 61.5319L1106.24 72.5881C1105.1 73.1844 1103.66 72.8339 1103 71.8176C1102.34 70.7843 1102.73 69.4695 1103.87 68.8739L1124.97 57.8183ZM1142.62 113.359C1143.93 113.359 1145 114.323 1145 115.515C1145 116.707 1143.94 117.67 1142.62 117.67H1118.26C1116.95 117.67 1115.89 116.707 1115.89 115.515C1115.89 114.323 1116.95 113.359 1118.26 113.359H1142.62ZM959.826 19.8678C959.17 18.8351 959.556 17.5197 960.675 16.9247C961.813 16.3285 963.26 16.6796 963.916 17.7128L976.088 36.8815C976.744 37.8966 976.358 39.212 975.239 39.807C974.102 40.4033 972.654 40.0522 971.998 39.0177L959.826 19.8678ZM915.67 61.5326C914.532 60.9376 914.146 59.6228 914.802 58.5901C915.458 57.5738 916.905 57.2233 918.043 57.819L939.127 68.8745C940.265 69.4702 940.651 70.7849 939.995 71.8182C939.339 72.8345 937.893 73.1856 936.773 72.5888L915.67 61.5326ZM900.373 117.669C899.062 117.669 898 116.706 898 115.514C898 114.323 899.061 113.359 900.373 113.359H924.737C926.049 113.359 927.11 114.323 927.11 115.514C927.11 116.706 926.049 117.669 924.737 117.669H900.373ZM1017.43 2.11982C1017.45 0.945487 1018.51 0 1019.82 0C1021.11 0.0169285 1022.15 0.99878 1022.15 2.17249L1021.86 21.0246C1021.84 22.2158 1020.78 23.1619 1019.47 23.1444C1018.18 23.1444 1017.12 22.1632 1017.14 20.9725L1017.43 2.11982ZM958.051 279.21C956.74 279.21 955.679 278.248 955.679 277.056C955.679 275.864 956.74 274.901 958.051 274.901H1044.8C1046.09 274.901 1047.17 275.864 1047.17 277.056C1047.17 278.248 1046.09 279.21 1044.8 279.21H958.051ZM1003.56 288.41C1002.25 288.41 1001.18 287.445 1001.18 286.272C1001.18 285.08 1002.24 284.116 1003.56 284.116H1072.41C1073.72 284.116 1074.78 285.08 1074.78 286.272C1074.78 287.445 1073.72 288.41 1072.41 288.41H1003.56ZM1079.45 288.41C1078.13 288.41 1077.07 287.445 1077.07 286.272C1077.07 285.08 1078.13 284.116 1079.45 284.116H1088.07C1089.36 284.116 1090.42 285.08 1090.42 286.272C1090.42 287.445 1089.36 288.41 1088.07 288.41H1079.45ZM941.385 288.025C940.073 288.025 939.011 287.061 939.011 285.869C939.011 284.677 940.072 283.713 941.385 283.713H974.004C975.316 283.713 976.378 284.677 976.378 285.869C976.378 287.061 975.317 288.025 974.004 288.025H941.385ZM969.027 201.437C969.934 201.437 970.86 200.893 971.169 200.227C971.96 198.772 970.745 197.126 969.027 197.126H964.282C963.394 197.126 962.469 197.652 962.16 198.335C961.369 199.772 962.585 201.437 964.282 201.437H969.027ZM1073.75 201.437C1074.64 201.437 1075.59 200.893 1075.88 200.227C1076.67 198.772 1075.47 197.126 1073.75 197.126H1069.01C1068.12 197.126 1067.18 197.652 1066.89 198.335C1066.1 199.772 1067.29 201.437 1069.01 201.437H1073.75ZM1092.72 201.437C1093.61 201.437 1094.55 200.893 1094.84 200.227C1095.63 198.772 1094.43 197.126 1092.72 197.126H1087.97C1087.09 197.126 1086.14 197.652 1085.85 198.335C1085.06 199.772 1086.26 201.437 1087.97 201.437H1092.72ZM945.339 197.126C944.432 197.126 943.506 197.652 943.197 198.335C942.407 199.772 943.622 201.437 945.339 201.437H950.065C950.971 201.437 951.897 200.893 952.207 200.227C952.997 198.772 951.782 197.126 950.065 197.126H945.339ZM969.027 190.451C969.934 190.451 970.86 189.925 971.169 189.242C971.96 187.805 970.745 186.141 969.027 186.141H964.282C963.394 186.141 962.469 186.667 962.16 187.35C961.369 188.787 962.585 190.451 964.282 190.451H969.027ZM1073.75 190.451C1074.64 190.451 1075.59 189.925 1075.88 189.242C1076.67 187.805 1075.47 186.141 1073.75 186.141H1069.01C1068.12 186.141 1067.18 186.667 1066.89 187.35C1066.1 188.787 1067.29 190.451 1069.01 190.451H1073.75ZM1092.72 190.451C1093.61 190.451 1094.55 189.925 1094.84 189.242C1095.63 187.805 1094.43 186.141 1092.72 186.141H1087.97C1087.09 186.141 1086.14 186.667 1085.85 187.35C1085.06 188.787 1086.26 190.451 1087.97 190.451H1092.72ZM945.339 186.141C944.432 186.141 943.506 186.667 943.197 187.35C942.407 188.787 943.622 190.451 945.339 190.451H950.065C950.971 190.451 951.897 189.925 952.207 189.242C952.997 187.805 951.782 186.141 950.065 186.141H945.339ZM1079.08 17.7128C1079.74 16.6802 1081.18 16.3285 1082.32 16.9247C1083.44 17.5197 1083.83 18.8351 1083.19 19.8678L1071 39.0177C1070.34 40.0516 1068.89 40.4033 1067.78 39.807C1066.64 39.212 1066.25 37.8966 1066.91 36.8815L1079.08 17.7128ZM986.852 223.46H1056.16V238.474H986.852V223.46ZM993.411 253.472H1049.58V242.785H993.411V253.472ZM1038.28 257.783V268.488H1004.71V257.783H1038.28ZM1021.5 44.2743C1064.73 44.2743 1099.78 76.1093 1099.78 115.373C1099.78 139.727 1086.29 161.225 1065.73 174.034L1051.2 217.748C1051.05 218.204 1050.95 218.677 1050.88 219.149H992.118C992.06 218.677 991.964 218.203 991.809 217.748L977.264 174.034C956.72 161.225 943.216 139.727 943.216 115.373C943.217 76.1099 978.267 44.2743 1021.5 44.2743Z" fill="#E5C600"/>
</svg>
